<svg width="28" height="28" viewBox="0 0 28 28" fill="none" xmlns="http://www.w3.org/2000/svg">
    <path fill-rule="evenodd" clip-rule="evenodd"
        d="M2.2268 13.4021C2.2053 13.4191 2.18458 13.4375 2.16474 13.4573C1.89138 13.7307 1.89138 14.1739 2.16474 14.4472L11.0736 23.3561C11.3469 23.6294 11.7902 23.6294 12.0635 23.3561C12.3369 23.0827 12.3369 22.6395 12.0635 22.3661L4.25719 14.5598H25.62C26.0066 14.5598 26.32 14.2464 26.32 13.8598C26.32 13.4732 26.0066 13.1598 25.62 13.1598H4.44901L12.072 5.53677C12.3454 5.2634 12.3454 4.82019 12.072 4.54682C11.7987 4.27346 11.3555 4.27345 11.0821 4.54682L2.2268 13.4021Z"
        fill="#000" />
</svg>
