<?xml version="1.0" encoding="utf-8"?>

<!--
  - Copyright 2023 IceRock MAG Inc. Use of this source code is governed by the Apache 2.0 license.
  -->

<!DOCTYPE svg PUBLIC "-//W3C//DTD SVG 1.0//EN" "http://www.w3.org/TR/2001/REC-SVG-20010904/DTD/svg10.dtd">
<!-- Uploaded to: SVG Repo, www.svgrepo.com, Generator: SVG Repo Mixer Tools -->
<svg version="1.0" id="Layer_1" xmlns="http://www.w3.org/2000/svg" xmlns:xlink="http://www.w3.org/1999/xlink" 
	 width="18px" height="18px" viewBox="0 0 64 64" enable-background="new 0 0 64 64" xml:space="preserve">
<g>
	<path fill="#FFFFFF" d="M43.293,18.696c0.195,0.195,0.451,0.293,0.707,0.293s0.512-0.098,0.707-0.293
		c0.391-0.391,0.391-1.023,0-1.414l-2-2c-0.391-0.391-1.023-0.391-1.414,0s-0.391,1.023,0,1.414L43.293,18.696z"/>
	<path fill="#FFFFFF" d="M43.293,23.695c0.195,0.195,0.451,0.293,0.707,0.293s0.512-0.098,0.707-0.293
		c0.391-0.391,0.391-1.023,0-1.414l-7-7c-0.391-0.391-1.023-0.391-1.414,0s-0.391,1.023,0,1.414L43.293,23.695z"/>
	<g>
		<circle fill="#FFFFFF" cx="11" cy="42.988" r="2"/>
		<path fill="#FFFFFF" d="M58.982,32.076C58.985,32.045,59,32.02,59,31.988c0-2.866-0.589-28-21-28H26c-13.346,0-21,10.206-21,28
			c0,0.031,0.015,0.057,0.018,0.088C2.176,32.547,0,35.016,0,37.988v10c0,3.309,2.691,6,6,6v5c0,0.553,0.447,1,1,1h8
			c0.553,0,1-0.447,1-1v-5h32v5c0,0.553,0.447,1,1,1h8c0.553,0,1-0.447,1-1v-5c3.309,0,6-2.691,6-6v-10
			C64,35.016,61.824,32.547,58.982,32.076z M14,57.988H8v-4h6V57.988z M11,46.988c-2.206,0-4-1.794-4-4s1.794-4,4-4s4,1.794,4,4
			S13.206,46.988,11,46.988z M43,45.988H21c-0.553,0-1-0.447-1-1s0.447-1,1-1h22c0.553,0,1,0.447,1,1S43.553,45.988,43,45.988z
			 M18,31.988c0-3.313,2.687-6,6-6s6,2.687,6,6H18z M43,41.988H21c-0.553,0-1-0.447-1-1s0.447-1,1-1h22c0.553,0,1,0.447,1,1
			S43.553,41.988,43,41.988z M32,31.988c0-4.418-3.582-8-8-8s-8,3.582-8,8h-5c0-18.184,8.701-22,16-22h10
			c6.34,0,10.909,3.16,13.581,9.394C52.825,24.62,53,30.355,53,31.988H32z M56,57.988h-6v-4h6V57.988z M53,46.988
			c-2.206,0-4-1.794-4-4s1.794-4,4-4s4,1.794,4,4S55.206,46.988,53,46.988z"/>
		<circle fill="#FFFFFF" cx="53" cy="42.988" r="2"/>
	</g>
</g>
</svg>
